# xmcd CD database file
#
# Track frame offsets:
#	150
#	15672
#	33032
#	49941
#	65790
#	81276
#	93785
#	118518
#	135121
#	145401
#	166372
#	191084
#	229453
#	243460
#	264531
#
# Disc length: 3830 seconds
#
# Revision: 0
# Processed by: cddbd v1.5.2PL0 Copyright (c) Steve Scherf et al.
# Submitted via: CDex 1.70beta2
#
DISCID=cc0ef40f
DTITLE=Adderley, Julian Cannonball - Rattler's Groove
DYEAR=1957
DGENRE=Jazz
TTITLE0=Rattler's Groove
TTITLE1=Jackleg
TTITLE2=Fuller Bop Man
TTITLE3=The Fat Man
TTITLE4=Sam's Tune
TTITLE5=Room 251
TTITLE6=Jubilation
TTITLE7=Bimini
TTITLE8=Hoppin' John
TTITLE9=Our Delight
TTITLE10=If I Love Again
TTITLE11=Straight No Chaser
TTITLE12=Hayseed
TTITLE13=Stay On It
TTITLE14=What's New
EXTD=YEAR: 1957
EXTT0=
EXTT1=
EXTT2=
EXTT3=
EXTT4=
EXTT5=
EXTT6=
EXTT7=
EXTT8=
EXTT9=
EXTT10=
EXTT11=
EXTT12=
EXTT13=
EXTT14=
PLAYORDER=
